{"title":"Locked.Down.2010.720p.BRRip.H264.Feel-Free","uid":5948573,"size":1544049793,"categoryP":"video","categoryS":"hd___movies","magnet":"?xt=urn:btih:bca8eb24ad59d6e96eaace26d6f00883c1977f64&amp;dn=Locked.Down.2010.720p.BRRip.H264.Feel-Free&amp;tr=udp%3A%2F%2Ftracker.openbittorrent.com%3A80&amp;tr=udp%3A%2F%2Fopen.demonii.com%3A1337&amp;tr=udp%3A%2F%2Ftracker.coppersurfer.tk%3A6969&amp;tr=udp%3A%2F%2Fexodus.desync.com%3A6969","seeders":0,"leechers":2,"uploader":"HeroMaster","files":-1,"time":1289458281,"description":"Genre:Action\nLanguage:English\nIMDb:http://www.imdb.com/title/tt1597033/\nSource:.720p.BluRay.x264-BRMP\n\nGeneral\nComplete name :Locked.Down.2010.720p.BRRip.H264.Feel-Free\nFormat : MPEG-4\nFormat profile : Base Media\nCodec ID : mp42\nFile size : 1.43 GiB\nDuration : 1h 38mn\nOverall bit rate : 2 076 Kbps\n\nVideo #1\nCodec ID : avc1\nCodec ID/Info : Advanced Video Coding\nDuration : 1h 38mn\nBit rate mode : Variable\nBit rate : 1 595 Kbps\nWidth : 1 280 pixels\nHeight : 720 pixels\nDisplay aspect ratio : 16:9\nFrame rate mode : Constant\nFrame rate : 23.976 fps\nResolution : 24 bits\nColorimetry : 4:2:0\nScan type : Progressive\nBits/(Pixel*Frame) : 0.072\nStream size : 1.10 GiB (77%)\n\nAudio #2\nID : 2\nFormat : AAC\nFormat/Info : Advanced Audio Codec\nFormat version : Version 4\nFormat profile : LC\nFormat settings, SBR : No\nCodec ID : 40\nDuration : 1h 38mn\nBit rate mode : Constant\nBit rate : 477 Kbps\nNominal bit rate : 480 Kbps\nChannel(s) : 6 channels\nChannel positions : Front: L C R, Rear: L R, LFE\nSampling rate : 48.0 KHz\nResolution : 16 bits\nStream size : 337 MiB (23%)\n\nPlot:\nDanny, a respected cop, is setup after an investigation goes wrong. While laying low in his new jail cell, Danny is forced to get involved in the inmates underground cage fighting circuit. With the help of Irving, a former mixed martial arts champion, Danny devises a scheme to bring justice and innocence to his family's name, if he can get out of the cage alive.\n\n\nScreenshots:\n &lt;a href=&quot;\nhttp://www.postimg.com/image/24000/23860.jpg&quot; rel=&quot;nofollow&quot; target=&quot;_NEW&quot;&gt;\nhttp://www.postimg.com/image/24000/23860.jpg&lt;/a&gt;\n &lt;a href=&quot;\nhttp://www.postimg.com/image/24000/23861.jpg&quot; rel=&quot;nofollow&quot; target=&quot;_NEW&quot;&gt;\nhttp://www.postimg.com/image/24000/23861.jpg&lt;/a&gt;\n\n\nENJOY!\n\n\n","torrent":{"xt":"urn:btih:bca8eb24ad59d6e96eaace26d6f00883c1977f64","amp;dn":"Locked.Down.2010.720p.BRRip.H264.Feel-Free","amp;tr":["udp%3A%2F%2Ftracker.openbittorrent.com%3A80","udp%3A%2F%2Fopen.demonii.com%3A1337","udp%3A%2F%2Ftracker.coppersurfer.tk%3A6969","udp%3A%2F%2Fexodus.desync.com%3A6969"],"infoHash":"bca8eb24ad59d6e96eaace26d6f00883c1977f64","infoHashBuffer":{"type":"Buffer","data":[188,168,235,36,173,89,214,233,110,170,206,38,214,240,8,131,193,151,127,100]},"announce":[],"urlList":[]}}